<?xml version="1.0" standalone="no"?>
<!DOCTYPE svg PUBLIC "-//W3C//DTD SVG 20010904//EN"
 "http://www.w3.org/TR/2001/REC-SVG-20010904/DTD/svg10.dtd">
<svg version="1.0" xmlns="http://www.w3.org/2000/svg"
 width="223.000000pt" height="223.000000pt" viewBox="0 0 223.000000 223.000000"
 preserveAspectRatio="xMidYMid meet">
<metadata>
Created by potrace 1.11, written by Peter Selinger 2001-2013
</metadata>
<g transform="translate(0.000000,223.000000) scale(0.100000,-0.100000)"
fill="#000000" stroke="none">
<path d="M133 2219 c-45 -13 -110 -82 -123 -129 -7 -26 -10 -355 -8 -997 l3
-958 24 -38 c13 -21 42 -50 64 -65 l41 -27 981 0 981 0 41 27 c22 15 51 44 64
65 l24 38 2 970 3 970 -23 45 c-14 26 -42 58 -66 75 l-43 30 -966 2 c-583 1
-980 -2 -999 -8z"/>
</g>
</svg>
